<svg xmlns="http://www.w3.org/2000/svg" xmlns:xlink="http://www.w3.org/1999/xlink" version="1.1" id="Layer_1" x="0px" y="0px" width="100px" height="100px" enable-background="new 0 0 100 100" xml:space="preserve"><style>.style0{fill:	#2E3192;}</style><g><g><path d="M72 30.5H27c-0.829 0-1.5 0.671-1.5 1.5v36c0 0.8 0.7 1.5 1.5 1.5h45c0.829 0 1.5-0.671 1.5-1.5V32 C73.5 31.2 72.8 30.5 72 30.5z M70.5 66.5h-42V44.246h42V66.5z M70.5 41.246h-42V33.5h42V41.246z M33.347 38.8 c0.758 0 1.373-0.615 1.373-1.373c0-0.758-0.615-1.373-1.373-1.373s-1.373 0.615-1.373 1.4 C31.974 38.1 32.6 38.8 33.3 38.751z M38.689 38.751c0.758 0 1.373-0.615 1.373-1.373c0-0.758-0.615-1.373-1.373-1.373 c-0.758 0-1.373 0.615-1.373 1.373C37.316 38.1 37.9 38.8 38.7 38.751z M44.031 38.751c0.758 0 1.373-0.615 1.373-1.373 c0-0.758-0.615-1.373-1.373-1.373c-0.758 0-1.373 0.615-1.373 1.373C42.658 38.1 43.3 38.8 44 38.751z" class="style0"/></g></g></svg>