<svg version="1.1" id="Layer_1" xmlns="http://www.w3.org/2000/svg" xmlns:xlink="http://www.w3.org/1999/xlink" x="0px" y="0px" width="50px" height="50px" viewBox="0 0 50 50" enable-background="new 0 0 50 50" xml:space="preserve"><g><g><path fill-rule="evenodd" clip-rule="evenodd" fill="#27AAE1" d="M44,18.5h-1c-0.276,0-0.5,0.224-0.5,0.5v0.5h-4V28	c0,6.904-5.596,12.5-12.5,12.5h-1c-6.904,0-12.5-5.596-12.5-12.5v-8.5h-4V19c0-0.276-0.224-0.5-0.5-0.5H7 c-0.276,0-0.5,0.224-0.5,0.5v3c0,0.276,0.224,0.5,0.5,0.5h1c0.276,0,0.5-0.224,0.5-0.5v-0.5h2V28c0,8.008,6.492,14.5,14.5,14.5h0	c-0.276,0-0.5,0.224-0.5,0.5v2.5H18c-0.276,0-0.5,0.224-0.5,0.5v1c0,0.276,0.224,0.5,0.5,0.5h15c0.276,0,0.5-0.224,0.5-0.5v-1 c0-0.276-0.224-0.5-0.5-0.5h-6.5V43c0-0.276-0.224-0.5-0.5-0.5h0c8.008,0,14.5-6.492,14.5-14.5v-6.5h2V22	c0,0.276,0.224,0.5,0.5,0.5h1c0.276,0,0.5-0.224,0.5-0.5v-3C44.5,18.724,44.276,18.5,44,18.5z M25,37.5h1 c5.247,0,9.5-4.253,9.5-9.5V11c0-5.247-4.253-9.5-9.5-9.5h-1c-5.247, 0-9.5,4.253-9.5,9.5v17C15.5,33.247,19.753,37.5,25,37.5z M17.5,10.5c0-3.866,3.134-7,7-7h2c3.866,0,7,3.134,7,7v18c0,3.866-3.134,7-7,7h-2c-3.866,0-7-3.134-7-7V10.5z"/></g></g>
</svg>
