<svg xmlns="http://www.w3.org/2000/svg" xmlns:xlink="http://www.w3.org/1999/xlink" version="1.1" id="Layer_1" x="0px" y="0px" width="100px" height="100px" enable-background="new 0 0 100 100" xml:space="preserve"><style>.style0{fill:	#27AAE1;}</style><path d="M49.5 74c-8.27 0-15-6.73-15-15V41c0-8.271 6.729-15 15-15c8.271 0 15 6.7 15 15v18 C64.5 67.3 57.8 74 49.5 74z M49.5 29c-6.617 0-12 5.383-12 12v18c0 6.6 5.4 12 12 12s12-5.383 12-12V41 C61.5 34.4 56.1 29 49.5 29z M49.683 46.53c-2.068 0-3.75-1.681-3.75-3.75v-4.5c0-2.068 1.682-3.75 3.75-3.75 c2.068 0 3.8 1.7 3.8 3.75v4.5C53.433 44.8 51.8 46.5 49.7 46.53z M49.683 37.53c-0.413 0-0.75 0.337-0.75 0.75v4.5 c0 0.4 0.3 0.8 0.8 0.75c0.413 0 0.75-0.337 0.75-0.75v-4.5C50.433 37.9 50.1 37.5 49.7 37.53z" class="style0"/></svg>