<svg version="1.1" id="Layer_1" xmlns="http://www.w3.org/2000/svg" xmlns:xlink="http://www.w3.org/1999/xlink" x="0px" y="0px" width="50px" height="50px" viewBox="0 0 50 50" enable-background="new 0 0 50 50" xml:space="preserve"><g><g><path fill-rule="evenodd" clip-rule="evenodd" fill="#662D91" d="M17.448,26.028l-0.439,0.439 c-0.129,0.129-0.142,0.333-0.068,0.53l-0.214-0.195l-3.264,10.792l10.632-4.062l-0.031-0.029c0.008-0.007,0.02-0.008,0.028-0.016 l0.707-0.707c0.004-0.004,0.004-0.01,0.008-0.014l16.271-16.271c0.004-0.004,0.01-0.004,0.014-0.008l0.707-0.707	c0.004-0.004,0.004-0.01,0.008-0.014l0.362-0.362l-1.414-1.414l-0.024,0.024l-4.264-4.221l0.046-0.046l-1.414-1.414L17.425,26.004 L17.448,26.028z M35.051,11.207l4.264,4.221L23.729,31.013l-4.264-4.221L35.051,11.207z M22.173,32.26l-6.667,3.227l2.808-7.045 L22.173,32.26z M43.5,18.5v26c0,1.105-0.895,2-2,2h-35c-1.104,0-2-0.895-2-2v-35c0-1.105,0.896-2,2-2h25v-2h-25 c-2.209,0-4,1.791-4,4v35c0,2.209,1.791,4,4,4h35c2.209,0,4-1.791,4-4V18.737L45.264,18.5H43.5z M46.617,5.297l-1.414-1.414 c-1.562-1.562-4.095-1.562-5.657,0l-1.621,1.621l0.143,0.143c-0.135-0.01-0.262,0.023-0.352,0.112l-0.707,0.707 c-0.195,0.195-0.147,0.561,0.109,0.816l6.158,6.095c0.255,0.255,0.62,0.304,0.816,0.109l0.707-0.707 c0.076-0.076,0.105-0.182,0.109-0.293l0.089,0.089l1.621-1.621C48.179,9.392,48.179,6.859,46.617,5.297z M45.203,9.54 l-1.474,1.474l-4.264-4.221l1.495-1.495c0.781-0.781,2.047-0.781,2.828,0l1.414,1.414C45.984,7.492,45.984,8.759,45.203,9.54z"/></g></g>
</svg>
