<svg version="1.1" id="Layer_1" xmlns="http://www.w3.org/2000/svg" xmlns:xlink="http://www.w3.org/1999/xlink" x="0px" y="0px"
	 width="100px" height="100px" viewBox="0 0 100 100" enable-background="new 0 0 100 100" xml:space="preserve">
<g>
	<g>
		<path fill="#009444" d="M67.657,30.784l-12.153,3.832c-0.232,0.073-0.443,0.201-0.615,0.374l-18.97,18.97c0,0-0.001,0-0.001,0.001
			s0,0.001-0.001,0.001l-4.742,4.742c-0.584,0.584-0.592,1.522-0.017,2.097l8.32,8.32c0.575,0.575,1.513,0.567,2.097-0.017
			l4.742-4.742c0,0,0,0,0,0s0,0,0,0L65.289,45.39c0.172-0.173,0.3-0.383,0.374-0.615l3.832-12.153
			C69.828,31.571,68.708,30.452,67.657,30.784z M40.553,65.966l-6.24-6.24l2.629-2.629l6.24,6.24L40.553,65.966z M62.947,43.572
			L45.295,61.224l-6.24-6.24l17.652-17.652l9.114-2.874L62.947,43.572z"/>
	</g>
</g>
</svg>
