<svg version="1.1" id="Layer_1" xmlns="http://www.w3.org/2000/svg" xmlns:xlink="http://www.w3.org/1999/xlink" x="0px" y="0px" width="50px" height="50px" viewBox="0 0 50 50" enable-background="new 0 0 50 50" xml:space="preserve"><g><g><path fill-rule="evenodd" clip-rule="evenodd" fill="#009444" d="M46.5,6.5h-23c0-2.209-1.791-4-4-4h-7c-2.209,0-4,1.791-4,4h-4 c-1.105,0-2,0.895-2,2v36c0,1.105,0.895,2,2,2h42c1.105,0,2-0.895,2-2v-36C48.5,7.395,47.605,6.5,46.5,6.5z M12.5,4.5h7 c1.105,0,2,0.895,2,2h-11C10.5,5.395,11.396,4.5,12.5,4.5z M46.5,42.5c0,1.105-0.895,2-2,2h-38c-1.105,0-2-0.895-2-2v-32
c0-1.105,0.895-2,2-2h38c1.105,0,2,0.895,2,2V42.5z M25.5,15.5c-6.075,0-11,4.925-11,11c0,6.075,4.925,11,11,11	c6.075,0,11-4.925,11-11C36.5,20.425,31.575,15.5,25.5,15.5z M25.5,35.587c-5.018,0-9.087-4.068-9.087-9.087 c0-5.019,4.068-9.087,9.087-9.087c5.019,0,9.087,4.068,9.087,9.087C34.587,31.519,30.519,35.587,25.5,35.587z M43,11.5h-8 c-0.276,0-0.5,0.224-0.5,0.5v1c0,0.276,0.224,0.5,0.5,0.5h8c0.276,0,0.5-0.224,0.5-0.5v-1C43.5,11.724,43.276,11.5,43,11.5z"/></g></g>
</svg>
