<svg version="1.1" id="Layer_1" xmlns="http://www.w3.org/2000/svg" xmlns:xlink="http://www.w3.org/1999/xlink" x="0px" y="0px" width="50px" height="50px" viewBox="0 0 50 50" enable-background="new 0 0 50 50" xml:space="preserve"><g><g><path fill-rule="evenodd" clip-rule="evenodd" fill="#8DC63F" d="M20.329,8.339c0.195,0.195,0.512,0.195,0.707,0L24.5,4.875V31.5	h2V4.875l3.464,3.464c0.195,0.195,0.512,0.195,0.707,0l0.707-0.707c0.195-0.195,0.195-0.512,0-0.707L26.5,2.046V1.5h-0.672 c-0.068-0.014-0.135-0.014-0.202,0h-0.251c-0.067-0.014-0.135-0.014-0.202,0H24.5v0.547l-4.878,4.878 c-0.195,0.195-0.195,0.512,0,0.707L20.329,8.339z M46.5,15.5h-13v2h11c1.105,0,2,0.895,2,2v24c0,1.105-0.895,2-2,2h-38	c-1.105,0-2-0.895-2-2v-24c0-1.105,0.895-2,2-2h11v-2h-13c-1.105,0-2,0.895-2,2v28c0,1.105,0.895,2,2,2h42c1.105,0,2-0.895,2-2 v-28C48.5,16.395,47.605,15.5,46.5,15.5z"/></g></g>
</svg>
