<svg xmlns:dc="http://purl.org/dc/elements/1.1/" xmlns:cc="http://creativecommons.org/ns#" xmlns:rdf="http://www.w3.org/1999/02/22-rdf-syntax-ns#" xmlns:svg="http://www.w3.org/2000/svg" xmlns="http://www.w3.org/2000/svg" xmlns:xlink="http://www.w3.org/1999/xlink" xmlns:sodipodi="http://sodipodi.sourceforge.net/DTD/sodipodi-0.dtd" xmlns:inkscape="http://www.inkscape.org/namespaces/inkscape" version="1.1" overflow="visible" width="32" height="32" viewBox="0 0 25.600005 25.600001" id="svg2" inkscape:version="0.48.4 r9939" style="fill-rule:evenodd;stroke-width:0.50099999;stroke-linejoin:bevel;overflow:visible"><script xlink:href="" id="script3301"/><script xlink:href="" id="script3299"/><metadata id="metadata322"><rdf:RDF><cc:Work rdf:about=""><dc:format>image/svg+xml</dc:format><dc:type rdf:resource="http://purl.org/dc/dcmitype/StillImage"/><dc:title/></cc:Work></rdf:RDF></metadata><defs id="defs4"><marker id="DefaultArrow2" markerUnits="strokeWidth" viewBox="0 0 1 1" markerWidth="1" markerHeight="1" overflow="visible" orient="auto" style="overflow:visible"><!-- REF_ARROW_STRAIGHT (-2) --><g id="g7"><!-- 1/108 --><path d="M-0.1 0.5 -0.1 -0.5 1.1 0 z" id="path9" inkscape:connector-curvature="0"/></g></marker><marker id="DefaultArrow3" markerUnits="strokeWidth" viewBox="0 0 1 1" markerWidth="1" markerHeight="1" overflow="visible" orient="auto" style="overflow:visible"><!-- REF_ARROW_ANGLED --><g id="g12"><path d="M-0.3 0.5 -0.1 0 -0.3 -0.5 1.3 0 z" id="path14" inkscape:connector-curvature="0"/></g></marker><marker id="DefaultArrow4" markerUnits="strokeWidth" viewBox="0 0 1 1" markerWidth="1" markerHeight="1" overflow="visible" orient="auto" style="overflow:visible"><!-- REF_ARROW_ROUNDED --><g id="g17"><path d="M-0.1 0 -0.1 -0.4 C-0.1 -0.5 0 -0.5 0.1 -0.5 L1.1 -0.1 C1.1 -0.1 1.2 -0 1.2 0 1.2 0 1.1 0.1 1.1 0.1 L0.1 0.5 C0 0.5 -0.1 0.5 -0.1 0.4 z" id="path19" inkscape:connector-curvature="0"/></g></marker><marker id="DefaultArrow5" markerUnits="strokeWidth" viewBox="0 0 1 1" markerWidth="1" markerHeight="1" overflow="visible" orient="auto" style="overflow:visible"><!-- REF_ARROW_SPOT --><g id="g22"><path d="M-0.5 0 C-0.5 0.3 -0.3 0.5 0 0.5 0.3 0.5 0.5 0.3 0.5 0 0.5 -0.3 0.3 -0.5 0 -0.5 -0.3 -0.5 -0.5 -0.3 -0.5 0 z" id="path24" inkscape:connector-curvature="0"/></g></marker><marker id="DefaultArrow6" markerUnits="strokeWidth" viewBox="0 0 1 1" markerWidth="1" markerHeight="1" overflow="visible" orient="auto" style="overflow:visible"><!-- REF_ARROW_DIAMOND --><g id="g27"><path d="M-0.6 0 0 0.6 0.6 0 0 -0.6 z" id="path29" inkscape:connector-curvature="0"/></g></marker><marker id="DefaultArrow7" markerUnits="strokeWidth" viewBox="0 0 1 1" markerWidth="1" markerHeight="1" overflow="visible" orient="auto" style="overflow:visible"><!-- REF_ARROW_FEATHER --><g id="g32"><path d="M0.2 -0.5 1 -0.5 0.6 0 1 0.5 0.2 0.5 -0.3 0 z" id="path34" inkscape:connector-curvature="0"/></g></marker><marker id="DefaultArrow8" markerUnits="strokeWidth" viewBox="0 0 1 1" markerWidth="1" markerHeight="1" overflow="visible" orient="auto" style="overflow:visible"><!-- REF_ARROW_FEATHER2 --><g id="g37"><path d="M-0.3 0 0.2 -0.5 0.5 -0.5 0.2 -0.2 0.3 -0.2 0.6 -0.5 0.9 -0.5 0.6 -0.2 0.7 -0.2 1 -0.5 1.3 -0.5 0.8 0 1.3 0.5 1 0.5 0.7 0.2 0.6 0.2 0.9 0.5 0.6 0.5 0.3 0.2 0.2 0.2 0.5 0.5 0.2 0.5 z" id="path39" inkscape:connector-curvature="0"/></g></marker><marker id="DefaultArrow9" markerUnits="strokeWidth" viewBox="0 0 1 1" markerWidth="1" markerHeight="1" overflow="visible" orient="auto" style="overflow:visible"><!-- REF_ARROW_HOLLOWDIAMOND --><g id="g42"><path d="M0 0.4 -0.4 0 0 -0.4 0.4 0 zM0 0.6 -0.6 0 0 -0.6 0.6 0 z" id="path44" inkscape:connector-curvature="0"/></g></marker><filter id="StainedFilter" color-interpolation-filters="sRGB"><feBlend mode="multiply" in2="BackgroundImage" in="SourceGraphic" result="blend" id="feBlend47"/><feComposite in="blend" in2="SourceAlpha" operator="in" result="comp" id="feComposite49"/></filter><filter id="BleachFilter" color-interpolation-filters="sRGB"><feBlend mode="screen" in2="BackgroundImage" in="SourceGraphic" result="blend" id="feBlend52"/><feComposite in="blend" in2="SourceAlpha" operator="in" result="comp" id="feComposite54"/></filter><filter id="InvertTransparencyBitmapFilter" color-interpolation-filters="sRGB"><feComponentTransfer id="feComponentTransfer57"><feFuncR type="gamma" amplitude="1.055" exponent=".416666666" offset="-0.055" id="feFuncR59"/><feFuncG type="gamma" amplitude="1.055" exponent=".416666666" offset="-0.055" id="feFuncG61"/><feFuncB type="gamma" amplitude="1.055" exponent=".416666666" offset="-0.055" id="feFuncB63"/></feComponentTransfer><feComponentTransfer id="feComponentTransfer65"><feFuncR type="linear" slope="-1" intercept="1" id="feFuncR67"/><feFuncG type="linear" slope="-1" intercept="1" id="feFuncG69"/><feFuncB type="linear" slope="-1" intercept="1" id="feFuncB71"/><feFuncA type="linear" slope="1" intercept="0" id="feFuncA73"/></feComponentTransfer><feComponentTransfer id="feComponentTransfer75"><feFuncR type="gamma" amplitude="1" exponent="2.4" offset="0" id="feFuncR77"/><feFuncG type="gamma" amplitude="1" exponent="2.4" offset="0" id="feFuncG79"/><feFuncB type="gamma" amplitude="1" exponent="2.4" offset="0" id="feFuncB81"/></feComponentTransfer></filter><radialGradient id="RadialGradient" gradientUnits="userSpaceOnUse" cx="0" cy="0" r="237.4" gradientTransform="matrix(0,-1,0.886054,0,172.174,122.358)"><stop offset="0" stop-color="#473600" id="stop84"/><stop offset="0.792135000228882" stop-color="#3d2f00" id="stop86"/><stop offset="0.990000009536743" stop-color="#3a2c00" id="stop88"/><stop offset="1" stop-color="#3a2c00" id="stop90"/></radialGradient><radialGradient id="RadialGradient_1" gradientUnits="userSpaceOnUse" cx="0" cy="0" r="237.4" gradientTransform="matrix(0,-1,0.886054,0,170.916,119.88)"><stop offset="0" stop-color="#553e00" id="stop93"/><stop offset="0.792135000228882" stop-color="#403200" id="stop95"/><stop offset="0.990000009536743" stop-color="#3b2b00" id="stop97"/><stop offset="1" stop-color="#3b2b00" id="stop99"/></radialGradient><radialGradient id="RadialGradient_2" gradientUnits="userSpaceOnUse" cx="0" cy="0" r="237.4" gradientTransform="matrix(0,-1,0.886054,0,169.66,117.403)"><stop offset="0" stop-color="#634700" id="stop102"/><stop offset="0.792135000228882" stop-color="#443400" id="stop104"/><stop offset="0.990000009536743" stop-color="#3c2a00" id="stop106"/><stop offset="1" stop-color="#3c2a00" id="stop108"/></radialGradient><radialGradient id="RadialGradient_3" gradientUnits="userSpaceOnUse" cx="0" cy="0" r="237.4" gradientTransform="matrix(0,-1,0.886054,0,168.403,114.925)"><stop offset="0" stop-color="#724f00" id="stop111"/><stop offset="0.792135000228882" stop-color="#473600" id="stop113"/><stop offset="0.990000009536743" stop-color="#3c2900" id="stop115"/><stop offset="1" stop-color="#3c2900" id="stop117"/></radialGradient><radialGradient id="RadialGradient_4" gradientUnits="userSpaceOnUse" cx="0" cy="0" r="237.4" gradientTransform="matrix(0,-1,0.886054,0,167.146,112.448)"><stop offset="0" stop-color="#805800" id="stop120"/><stop offset="0.792135000228882" stop-color="#4b3800" id="stop122"/><stop offset="0.990000009536743" stop-color="#3d2800" id="stop124"/><stop offset="1" stop-color="#3d2800" id="stop126"/></radialGradient><radialGradient id="RadialGradient_5" gradientUnits="userSpaceOnUse" cx="0" cy="0" r="237.4" gradientTransform="matrix(0,-1,0.886054,0,165.889,109.97)"><stop offset="0" stop-color="#8e6000" id="stop129"/><stop offset="0.792135000228882" stop-color="#4e3b00" id="stop131"/><stop offset="0.990000009536743" stop-color="#3e2700" id="stop133"/><stop offset="1" stop-color="#3e2700" id="stop135"/></radialGradient><radialGradient id="RadialGradient_6" gradientUnits="userSpaceOnUse" cx="0" cy="0" r="237.4" gradientTransform="matrix(0,-1,0.886054,0,164.632,107.493)"><stop offset="0" stop-color="#9c6900" id="stop138"/><stop offset="0.792135000228882" stop-color="#523d00" id="stop140"/><stop offset="0.990000009536743" stop-color="#3f2600" id="stop142"/><stop offset="1" stop-color="#3f2600" id="stop144"/></radialGradient><linearGradient id="LinearGradient" gradientUnits="userSpaceOnUse" x1="0" y1="0" x2="42.8" y2="36.8" gradientTransform="translate(218.601,165.399)"><stop offset="0" stop-color="#5c5c5c" id="stop147"/><stop offset="1" stop-color="#000000" id="stop149"/></linearGradient><linearGradient id="LinearGradient_1" gradientUnits="userSpaceOnUse" x1="0" y1="0" x2="-9.7" y2="-141.9" gradientTransform="translate(181.122,157.792)"><stop offset="0" stop-color="#ffffff" id="stop152"/><stop offset="1" stop-color="#cfd1d2" id="stop154"/></linearGradient><linearGradient id="LinearGradient_2" gradientUnits="userSpaceOnUse" x1="0" y1="0" x2="69.8" y2="-189.8" gradientTransform="translate(259.851,172.899)"><stop offset="0" stop-color="#b5b5b5" id="stop157"/><stop offset="1" stop-color="#000000" id="stop159"/></linearGradient><linearGradient id="LinearGradient_3" gradientUnits="userSpaceOnUse" x1="0" y1="0" x2="-51.5" y2="-64.4" gradientTransform="translate(204.11,87.059)"><stop offset="0" stop-color="#df9000" id="stop162"/><stop offset="0.730337023735046" stop-color="#7f5200" id="stop164"/><stop offset="0.990000009536743" stop-color="#3f2600" id="stop166"/><stop offset="1" stop-color="#3f2600" id="stop168"/></linearGradient><linearGradient id="LinearGradient_4" gradientUnits="userSpaceOnUse" x1="0" y1="0" x2="19" y2="85.2" gradientTransform="translate(199.945,96.333)"><stop offset="0" stop-color="#ba7d00" id="stop171"/><stop offset="0.792135000228882" stop-color="#7f5200" id="stop173"/><stop offset="0.990000009536743" stop-color="#3f2600" id="stop175"/><stop offset="1" stop-color="#3f2600" id="stop177"/></linearGradient><linearGradient id="LinearGradient_5" gradientUnits="userSpaceOnUse" x1="0" y1="0" x2="-1" y2="-63.5" gradientTransform="translate(129.134,111.014)"><stop offset="0" stop-color="#df9000" id="stop180"/><stop offset="0.792135000228882" stop-color="#7f5200" id="stop182"/><stop offset="0.990000009536743" stop-color="#3f2600" id="stop184"/><stop offset="1" stop-color="#3f2600" id="stop186"/></linearGradient><linearGradient id="LinearGradient_6" gradientUnits="userSpaceOnUse" x1="0" y1="0" x2="15.1" y2="58.4" gradientTransform="translate(129.286,104.867)"><stop offset="0" stop-color="#df9000" id="stop189"/><stop offset="0.792135000228882" stop-color="#7f5200" id="stop191"/><stop offset="0.990000009536743" stop-color="#3f2600" id="stop193"/><stop offset="1" stop-color="#3f2600" id="stop195"/></linearGradient><radialGradient id="RadialGradient_7" gradientUnits="userSpaceOnUse" cx="0" cy="0" r="38.7" gradientTransform="matrix(0.69735527,-0.71672563,1.2319152,1.1986212,183.351,196.899)"><stop offset="0" stop-color="#6b4c29" id="stop198"/><stop offset="1" stop-color="#a57348" id="stop200"/></radialGradient><radialGradient id="RadialGradient_8" gradientUnits="userSpaceOnUse" cx="0" cy="0" r="121" gradientTransform="matrix(0,-1,0.973942,0,134.346,314.993)"><stop offset="0" stop-color="#e0bf9e" id="stop203"/><stop offset="1.68539006263018E-02" stop-color="#e0bf9e" id="stop205"/><stop offset="0.202246993780136" stop-color="#e6b891" id="stop207"/><stop offset="1" stop-color="#7b5d39" id="stop209"/></radialGradient><radialGradient id="RadialGradient_9" gradientUnits="userSpaceOnUse" cx="0" cy="0" r="87.1" gradientTransform="matrix(-0.01429027,-0.99989789,1.2061368,-0.01723778,146.601,370.899)"><stop offset="0" stop-color="#9a9a9a" id="stop212"/><stop offset="1" stop-color="#313131" id="stop214"/></radialGradient><linearGradient id="LinearGradient_7" gradientUnits="userSpaceOnUse" x1="0" y1="0" x2="-54" y2="-87" gradientTransform="translate(213.351,257.649)"><stop offset="0" stop-color="#484848" id="stop217"/><stop offset="1" stop-color="#000000" id="stop219"/></linearGradient><linearGradient id="LinearGradient_8" gradientUnits="userSpaceOnUse" x1="0" y1="0" x2="10.5" y2="-85.5" gradientTransform="translate(133.101,343.149)"><stop offset="0" stop-color="#8d8d8d" id="stop222"/><stop offset="1" stop-color="#000000" id="stop224"/></linearGradient><linearGradient id="LinearGradient_9" gradientUnits="userSpaceOnUse" x1="0" y1="0" x2="3.6" y2="-129" gradientTransform="translate(239.24,380.259)"><stop offset="0" stop-color="#ffffff" id="stop227"/><stop offset="1" stop-color="#000000" id="stop229"/></linearGradient><linearGradient id="LinearGradient_10" gradientUnits="userSpaceOnUse" x1="0" y1="0" x2="108" y2="-33.8" gradientTransform="translate(115.007,352.336)"><stop offset="0" stop-color="#ffffff" id="stop232"/><stop offset="1" stop-color="#000000" id="stop234"/></linearGradient><linearGradient id="LinearGradient_11" gradientUnits="userSpaceOnUse" x1="0" y1="0" x2="-51.5" y2="-64.4" gradientTransform="translate(226.61,87.059)"><stop offset="0" stop-color="#df9000" id="stop237"/><stop offset="0.730337023735046" stop-color="#7f5200" id="stop239"/><stop offset="0.990000009536743" stop-color="#3f2600" id="stop241"/><stop offset="1" stop-color="#3f2600" id="stop243"/></linearGradient></defs><g id="g3123" transform="matrix(0.64050449,0,0,0.64031522,0,25.600003)"><path id="path3127" d="M 5.3 -9 C 4.7 -9.4 5 -10.3 5.7 -10.2 6.2 -10.1 6.6 -10.1 7.1 -10.1 9.1 -10.1 11.1 -10.6 12.8 -11.5 L 13 -11.7 12.6 -11.8 C 10.6 -12.5 9 -14 8.4 -16 8.3 -16.4 8.5 -16.7 8.8 -16.8 L 9.1 -16.8 8.6 -17.2 C 7.1 -18.4 6.2 -20.2 6.2 -22.2 L 6.2 -22.3 C 6.2 -22.7 6.7 -23 7.1 -22.8 L 7.5 -22.6 C 6.7 -23.7 6.3 -25.1 6.3 -26.5 6.3 -27.7 6.6 -28.9 7.2 -29.8 7.4 -30.2 7.9 -30.3 8.2 -29.9 10.7 -26.9 14.4 -24.7 18.6 -24.1 L 19.6 -24 19.6 -24.6 C 19.6 -28.3 22.6 -31.3 26.4 -31.3 27.8 -31.3 29.2 -30.8 30.3 -30 L 31 -29.4 31.7 -29.6 C 32.7 -29.8 33.6 -30.2 34.4 -30.7 34.9 -31 35.5 -30.5 35.3 -30 35.1 -29.3 34.8 -28.5 34.3 -27.9 L 34 -27.5 35.6 -27.6 C 36.1 -27.6 36.5 -27 36.2 -26.6 35.5 -25.6 34.6 -25.2 33.7 -24.7 L 33.1 -24.4 33.1 -23.9 C 33.1 -15.7 26.7 -6.2 15 -6.2 11.5 -6.2 8.1 -7.3 5.3 -9 z M 31.9 -23.9 C 31.9 -24.2 31.9 -24.4 31.9 -24.7 31.9 -24.9 32 -25.1 32.1 -25.2 32.8 -25.7 33.4 -25.9 33.9 -26.2 L 32.3 -26.2 C 31.7 -26.2 31.4 -27 32 -27.3 32.5 -27.7 32.9 -28.1 33.3 -28.6 L 33.5 -28.9 33.1 -28.7 C 32.4 -28.5 31.7 -28.3 31 -28.1 30.7 -28.1 30.5 -28.1 30.4 -28.3 29.4 -29.3 27.9 -30 26.4 -30 23.3 -30 20.8 -27.6 20.8 -24.6 20.8 -24.2 20.9 -23.8 21 -23.4 21.1 -23 20.8 -22.6 20.3 -22.6 15.7 -22.9 11.6 -24.8 8.5 -27.8 L 7.9 -28.4 7.7 -27.9 C 7.6 -27.5 7.5 -27 7.5 -26.5 7.5 -24.7 8.5 -23 10 -22 10.5 -21.7 10.2 -20.9 9.6 -20.9 9 -20.9 8.5 -21 8 -21.1 L 7.5 -21.3 C 7.9 -19.1 9.7 -17.4 11.9 -16.9 12.5 -16.8 12.6 -15.9 11.9 -15.7 11.4 -15.6 10.8 -15.5 10.1 -15.5 L 10 -15.5 10.3 -14.9 C 11.3 -13.6 12.9 -12.7 14.7 -12.7 15.3 -12.7 15.6 -11.9 15.1 -11.6 13.4 -10.3 11.5 -9.4 9.3 -9 L 8.2 -8.9 9.1 -8.6 C 11 -7.9 13 -7.5 15 -7.5 25.9 -7.5 31.9 -16.3 31.9 -23.9 z" style="fill:#000000;fill-opacity:1;fill-rule:evenodd;stroke:none" inkscape:connector-curvature="0"/></g></svg>